REM DIRINDEX 1\2\6,1\2\7,1\2\8,1\2\9,1\3\10,1\3\11,1\4\12,1\4\13,1\4\14,1\5\15,1\5\16,1\5\17
REM DIRNAME folder01,folder02,folder03,folder04,folder05,folder06,folder07,folder08,folder09,folder10,folder11,folder12,folder13,folder14,folder15,folder16,folder17
TITLE ""
FILE "1900_3_053 sec09_0869_0885.mp3" MP3
  TRACK 01 AUDIO
    TITLE "0:"
    INDEX 01 00:00:00
  TRACK 02 AUDIO
    TITLE "17:cjc020_7713"
    INDEX 01 00:00:17
  TRACK 03 AUDIO
    TITLE "0:"
    INDEX 01 00:02:59
  TRACK 04 AUDIO
    TITLE "16:cjc020_7714"
    INDEX 01 00:02:65
  TRACK 05 AUDIO
    TITLE "0:"
    INDEX 01 00:03:64
  TRACK 06 AUDIO
    TITLE "17:cjc020_7715"
    INDEX 01 00:04:50
  TRACK 07 AUDIO
    TITLE "0:"
    INDEX 01 00:06:57
  TRACK 08 AUDIO
    TITLE "16:cjc020_7716"
    INDEX 01 00:06:61
  TRACK 09 AUDIO
    TITLE "0:"
    INDEX 01 00:07:52
  TRACK 10 AUDIO
    TITLE "17:cjc020_7717"
    INDEX 01 00:08:36
  TRACK 11 AUDIO
    TITLE "0:"
    INDEX 01 00:10:43
  TRACK 12 AUDIO
    TITLE "16:cjc020_7718"
    INDEX 01 00:10:49
  TRACK 13 AUDIO
    TITLE "0:"
    INDEX 01 00:11:52
  TRACK 14 AUDIO
    TITLE "17:cjc020_7719"
    INDEX 01 00:12:38
  TRACK 15 AUDIO
    TITLE "0:"
    INDEX 01 00:14:51
  TRACK 16 AUDIO
    TITLE "16:cjc020_7720"
    INDEX 01 00:14:56
  TRACK 17 AUDIO
    TITLE "0:"
    INDEX 01 00:15:56
  TRACK 18 AUDIO
    TITLE "17:cjc020_7721"
    INDEX 01 00:16:42
  TRACK 19 AUDIO
    TITLE "0:"
    INDEX 01 00:17:23
  TRACK 20 AUDIO
    TITLE "16:cjc020_7722"
    INDEX 01 00:17:27
  TRACK 21 AUDIO
    TITLE "0:"
    INDEX 01 00:18:31
  TRACK 22 AUDIO
    TITLE "17:cjc020_7723"
    INDEX 01 00:19:15
  TRACK 23 AUDIO
    TITLE "0:"
    INDEX 01 00:20:43
  TRACK 24 AUDIO
    TITLE "16:cjc020_7724"
    INDEX 01 00:20:51
  TRACK 25 AUDIO
    TITLE "0:"
    INDEX 01 00:21:60
  TRACK 26 AUDIO
    TITLE "17:cjc020_7725"
    INDEX 01 00:22:40
  TRACK 27 AUDIO
    TITLE "0:"
    INDEX 01 00:23:44
  TRACK 28 AUDIO
    TITLE "16:cjc020_7726"
    INDEX 01 00:23:46
  TRACK 29 AUDIO
    TITLE "0:"
    INDEX 01 00:24:37
  TRACK 30 AUDIO
    TITLE "17:cjc020_7727"
    INDEX 01 00:25:21
  TRACK 31 AUDIO
    TITLE "0:"
    INDEX 01 00:27:28
  TRACK 32 AUDIO
    TITLE "16:cjc020_7728"
    INDEX 01 00:27:36
  TRACK 33 AUDIO
    TITLE "0:"
    INDEX 01 00:28:31
  TRACK 34 AUDIO
    TITLE "17:cjc020_7729"
    INDEX 01 00:29:11
  TRACK 35 AUDIO
    TITLE "0:"
    INDEX 01 00:30:10
  TRACK 36 AUDIO
    TITLE "16:cjc020_7730"
    INDEX 01 00:30:16
  TRACK 37 AUDIO
    TITLE "0:"
    INDEX 01 00:31:35
  TRACK 38 AUDIO
    TITLE "17:cjc020_7731"
    INDEX 01 00:32:21
  TRACK 39 AUDIO
    TITLE "0:"
    INDEX 01 00:33:28
  TRACK 40 AUDIO
    TITLE "16:cjc020_7732"
    INDEX 01 00:33:34
  TRACK 41 AUDIO
    TITLE "0:"
    INDEX 01 00:34:38
  TRACK 42 AUDIO
    TITLE "17:cjc020_7733"
    INDEX 01 00:35:23
  TRACK 43 AUDIO
    TITLE "0:"
    INDEX 01 00:36:46
  TRACK 44 AUDIO
    TITLE "16:cjc020_7734"
    INDEX 01 00:36:52
  TRACK 45 AUDIO
    TITLE "0:"
    INDEX 01 00:37:56
  TRACK 46 AUDIO
    TITLE "17:cjc020_7735"
    INDEX 01 00:38:41
  TRACK 47 AUDIO
    TITLE "0:"
    INDEX 01 00:39:60
  TRACK 48 AUDIO
    TITLE "16:cjc020_7736"
    INDEX 01 00:39:66
  TRACK 49 AUDIO
    TITLE "0:"
    INDEX 01 00:40:68
  TRACK 50 AUDIO
    TITLE "17:cjc020_7737"
    INDEX 01 00:41:53
  TRACK 51 AUDIO
    TITLE "0:"
    INDEX 01 00:43:11
  TRACK 52 AUDIO
    TITLE "16:cjc020_7738"
    INDEX 01 00:43:15
  TRACK 53 AUDIO
    TITLE "0:"
    INDEX 01 00:44:22
  TRACK 54 AUDIO
    TITLE "17:cjc020_7739"
    INDEX 01 00:45:06
  TRACK 55 AUDIO
    TITLE "0:"
    INDEX 01 00:46:37
  TRACK 56 AUDIO
    TITLE "16:cjc020_7740"
    INDEX 01 00:46:39
  TRACK 57 AUDIO
    TITLE "0:"
    INDEX 01 00:47:40
  TRACK 58 AUDIO
    TITLE "17:cjc020_7741"
    INDEX 01 00:48:16
  TRACK 59 AUDIO
    TITLE "0:"
    INDEX 01 00:50:52
  TRACK 60 AUDIO
    TITLE "16:cjc020_7742"
    INDEX 01 00:50:54
  TRACK 61 AUDIO
    TITLE "0:"
    INDEX 01 00:51:63
  TRACK 62 AUDIO
    TITLE "17:cjc020_7743"
    INDEX 01 00:52:49
  TRACK 63 AUDIO
    TITLE "0:"
    INDEX 01 00:53:68
  TRACK 64 AUDIO
    TITLE "16:cjc020_7744"
    INDEX 01 00:54:01
  TRACK 65 AUDIO
    TITLE "0:"
    INDEX 01 00:55:08
  TRACK 66 AUDIO
    TITLE "17:cjc020_7745"
    INDEX 01 00:55:65
  TRACK 67 AUDIO
    TITLE "0:"
    INDEX 01 00:57:05
  TRACK 68 AUDIO
    TITLE "16:cjc020_7746"
    INDEX 01 00:57:13
  TRACK 69 AUDIO
    TITLE "0:"
    INDEX 01 00:58:13
